PathFileType	4	(X/Y/Z)	C:\Users\WrightLab\Desktop\Jo\P3_36.trc
DataRate	CameraRate	NumFrames	NumMarkers	Units	OrigDataRate	OrigDataStartFrame	OrigNumFrames
100.00	100.00	       11	19	mm	100.00	439	       584
Frame#	Time	Headset_Front			Headset_Back			Headset_Left			Headset_Right			Left_Shoulder			Right_Shoulder			Sternum			C7			Left Elbow			Right Elbow			Left Wrist			Right Wrist			Left ASIS			Right ASIS			S2			Left Knee			Right Knee			Left Ankle			Right Ankle			
		X1	Y1	Z1	X2	Y2	Z2	X3	Y3	Z3	X4	Y4	Z4	X5	Y5	Z5	X6	Y6	Z6	X7	Y7	Z7	X8	Y8	Z8	X9	Y9	Z9	X10	Y10	Z10	X11	Y11	Z11	X12	Y12	Z12	X13	Y13	Z13	X14	Y14	Z14	X15	Y15	Z15	X16	Y16	Z16	X17	Y17	Z17	X18	Y18	Z18	X19	Y19	Z19	

439	4.380	-458.86517	1453.80554	-1246.12305				-612.01892	1525.01953	-1118.64673				-728.32886	1289.11462	-1050.69739	-368.94833	1292.51135	-985.66498	-531.66675	1175.97034	-1149.43433	-553.42279	1345.39526	-968.47760	-798.41931	954.54541	-1046.53333	-294.85144	945.31573	-963.93109	-767.29510	770.22638	-1129.21985				-616.11218	814.03076	-1147.76294				-548.61237	896.00726	-910.03522				-429.01431	389.99112	-942.73914				-504.54666	125.24420	-736.63757	
440	4.390							-610.35065	1527.15881	-1128.05298				-727.71002	1290.61011	-1060.63281	-368.45990	1294.26343	-992.20630	-530.11127	1177.94751	-1158.05896	-551.55994	1346.92737	-977.03589	-797.29816	956.56732	-1057.17126	-295.71161	947.43774	-971.61865	-764.95471	771.86115	-1139.15662	-284.46143	763.02106	-1100.69800	-614.16602	816.41901	-1156.52966				-547.57727	898.68860	-918.59833				-423.64651	387.93814	-958.80554				-500.78378	130.76160	-744.94055	
441	4.400							-608.61505	1529.31848	-1136.26086				-726.21063	1293.49670	-1070.51331	-368.05865	1296.70825	-1000.82202	-528.11847	1180.56213	-1166.90149	-551.73352	1348.57141	-985.23920	-794.54010	958.46954	-1066.53394	-296.38977	949.09619	-978.49701	-762.54858	773.79059	-1149.27600	-281.40024	763.40607	-1104.71790	-612.34131	818.51862	-1165.09424				-546.11670	900.10461	-927.63983				-418.15829	387.47797	-974.34290				-498.61844	135.74721	-753.33514	
442	4.410							-607.02856	1531.12854	-1145.09204				-724.70837	1295.66858	-1080.71692	-367.44473	1297.97705	-1006.02509	-525.96191	1183.22131	-1175.96350	-551.93018	1349.81335	-993.19409	-793.10052	960.60223	-1076.73706	-294.78662	952.24457	-984.56812	-759.96558	775.83569	-1159.55542	-278.14426	763.83600	-1108.63623	-610.58600	820.61133	-1173.80273				-546.69586	901.38257	-937.31787				-412.97897	387.12750	-990.41376				-494.20309	142.36659	-763.46759	
443	4.420							-605.40070	1532.75464	-1153.10645				-722.77808	1297.83167	-1090.39905	-366.45889	1300.07007	-1014.11969	-523.77173	1185.25830	-1184.47815	-550.25555	1351.40552	-1002.00702	-791.19983	962.61145	-1087.21399	-294.03214	954.09717	-990.91595	-757.43091	777.64954	-1169.50366				-609.05530	822.02802	-1182.08411				-546.64197	902.64777	-946.24017				-407.54004	386.36804	-1007.16107				-491.10315	148.32849	-773.59045	
444	4.430							-603.63367	1534.32129	-1161.13562				-720.69080	1299.43799	-1100.33252	-365.75262	1301.43103	-1020.50983	-521.21747	1187.39063	-1192.66943	-548.95990	1352.58752	-1010.22748	-789.89819	965.11700	-1097.47205	-291.36136	955.91803	-996.58063	-754.61469	780.43451	-1180.69080				-607.70465	823.11365	-1190.43823				-544.79626	904.98840	-953.39557				-401.15347	386.24893	-1023.54730				-487.58151	155.23042	-784.64612	
445	4.440							-602.05109	1535.46948	-1169.17798				-719.74835	1302.90063	-1111.11523	-365.47458	1302.78809	-1026.90662	-518.50891	1189.57251	-1201.46252	-547.51813	1353.30457	-1018.25696	-788.22180	967.43256	-1108.05884	-290.27850	958.15039	-1002.56921	-752.29767	781.84662	-1191.03845	-268.03467	768.76465	-1126.97253	-606.48193	823.85638	-1198.51416				-545.23572	906.34528	-961.30933				-396.63544	385.95578	-1040.38977				-481.12524	162.18854	-796.07098	
446	4.450							-600.13776	1536.94324	-1176.71606				-717.32135	1303.96143	-1120.68604	-363.91705	1303.21436	-1031.96619	-515.82111	1191.07410	-1210.26013	-547.61316	1354.61768	-1026.59888	-787.21997	968.78394	-1118.65479	-287.73727	958.91119	-1008.58948	-749.52155	784.22485	-1202.29541	-264.23782	769.01984	-1130.79773	-605.21844	823.98474	-1205.59729				-545.99133	907.64081	-968.39301				-390.92984	386.44064	-1057.60828				-479.56531	168.33266	-809.37128	
447	4.460							-598.20636	1538.05652	-1183.97705				-715.34808	1305.42700	-1130.55139	-362.88303	1304.63940	-1040.19580	-512.73425	1192.48792	-1217.51990	-546.42578	1356.22180	-1034.68372	-785.27319	971.21454	-1129.26294	-286.00601	959.84564	-1013.59735	-747.07581	785.58368	-1213.20276				-604.15033	824.05060	-1213.67029				-546.34521	909.09534	-976.96277				-386.17828	387.18661	-1074.63110				-476.49634	174.30174	-821.26709	
448	4.470							-596.23810	1539.27637	-1192.29590				-713.32233	1306.89685	-1141.01965	-361.76965	1304.81885	-1044.46960	-509.75836	1193.25793	-1224.84387	-545.57861	1357.21155	-1042.98010	-783.28735	972.54169	-1140.96228	-283.01099	961.17896	-1019.78101	-744.36060	787.43091	-1224.70300	-257.15833	773.40485	-1145.23242	-603.14319	823.38745	-1220.69519				-546.15521	909.67828	-983.05438				-380.80539	388.86664	-1092.09985				-470.26526	181.24745	-835.01282	
449	4.480							-593.96265	1540.66614	-1199.62012				-710.67120	1308.49231	-1151.22168	-360.12823	1305.44568	-1050.87549	-506.63626	1194.29846	-1232.62634	-545.29565	1358.54944	-1051.65698	-782.57361	974.21576	-1151.77917	-281.38907	960.66284	-1025.66895	-741.69403	789.15918	-1236.54919	-253.01939	773.62750	-1148.93884	-602.17371	822.86316	-1227.94983				-546.29034	910.24640	-991.45923				-374.43982	391.14798	-1107.28247				-468.36008	187.04982	-849.22357	
